<?xml version="1.0" encoding="UTF-8" standalone="no"?>
<svg width="595.275px" height="841.89px" viewBox="0 0 595.275 841.89"
 xmlns="http://www.w3.org/2000/svg" xmlns:xlink="http://www.w3.org/1999/xlink" version="1.2" baseProfile="tiny">
<title>minuet_all (5)</title>
<desc>Generated by MuseScore 2.1.0</desc>
<polyline class="StaffLines" fill="none" stroke="#000000" stroke-width="0.40" stroke-linejoin="bevel" points="38.8465,63.3465 566.929,63.3465"/>
<polyline class="StaffLines" fill="none" stroke="#000000" stroke-width="0.40" stroke-linejoin="bevel" points="38.8465,68.3465 566.929,68.3465"/>
<polyline class="StaffLines" fill="none" stroke="#000000" stroke-width="0.40" stroke-linejoin="bevel" points="38.8465,73.3465 566.929,73.3465"/>
<polyline class="StaffLines" fill="none" stroke="#000000" stroke-width="0.40" stroke-linejoin="bevel" points="38.8465,78.3465 566.929,78.3465"/>
<polyline class="StaffLines" fill="none" stroke="#000000" stroke-width="0.40" stroke-linejoin="bevel" points="38.8465,83.3465 566.929,83.3465"/>
<polyline class="StaffLines" fill="none" stroke="#000000" stroke-width="0.40" stroke-linejoin="bevel" points="38.8465,115.847 566.929,115.847"/>
<polyline class="StaffLines" fill="none" stroke="#000000" stroke-width="0.40" stroke-linejoin="bevel" points="38.8465,120.847 566.929,120.847"/>
<polyline class="StaffLines" fill="none" stroke="#000000" stroke-width="0.40" stroke-linejoin="bevel" points="38.8465,125.847 566.929,125.847"/>
<polyline class="StaffLines" fill="none" stroke="#000000" stroke-width="0.40" stroke-linejoin="bevel" points="38.8465,130.847 566.929,130.847"/>
<polyline class="StaffLines" fill="none" stroke="#000000" stroke-width="0.40" stroke-linejoin="bevel" points="38.8465,135.847 566.929,135.847"/>
<path class="Text" d="M34.3465,46.6121 C34.2423,46.6121 34.0496,46.6694 33.7683,46.784 L33.7683,46.6746 L35.2058,45.9402 L35.2683,45.9558 L35.2683,50.7527 C35.2683,50.9506 35.3152,51.0782 35.409,51.1355 C35.5027,51.1928 35.711,51.2215 36.034,51.2215 L36.034,51.3465 L33.8152,51.3465 L33.8152,51.2215 C34.1173,51.211 34.3204,51.1668 34.4246,51.0887 C34.5287,51.0105 34.5808,50.8465 34.5808,50.5965 L34.5808,46.9871 C34.5808,46.7371 34.5027,46.6121 34.3465,46.6121 M38.9246,51.4558 C38.3829,51.4558 37.948,51.2423 37.6199,50.8152 C37.2918,50.3881 37.1277,49.8204 37.1277,49.1121 C37.1277,48.8933 37.1511,48.6694 37.198,48.4402 C37.2449,48.211 37.3386,47.948 37.4793,47.6512 C37.6199,47.3543 37.8048,47.0887 38.034,46.8543 C38.2631,46.6199 38.586,46.4116 39.0027,46.2293 C39.4194,46.047 39.8933,45.9298 40.4246,45.8777 L40.4402,46.0027 C39.8152,46.1069 39.2918,46.3621 38.8699,46.7683 C38.448,47.1746 38.185,47.6798 38.0808,48.284 C38.3308,48.1381 38.5183,48.0444 38.6433,48.0027 C38.7683,47.961 38.9194,47.9402 39.0965,47.9402 C39.5548,47.9402 39.9194,48.0887 40.1902,48.3855 C40.461,48.6824 40.5965,49.0808 40.5965,49.5808 C40.5965,50.1329 40.4428,50.5834 40.1355,50.9324 C39.8282,51.2814 39.4246,51.4558 38.9246,51.4558 M38.7996,48.2996 C38.435,48.2996 38.1902,48.3777 38.0652,48.534 C37.9402,48.6902 37.8777,48.9246 37.8777,49.2371 C37.8777,49.8517 37.9793,50.336 38.1824,50.6902 C38.3855,51.0444 38.6642,51.2215 39.0183,51.2215 C39.2996,51.2215 39.5131,51.1043 39.659,50.8699 C39.8048,50.6355 39.8777,50.2996 39.8777,49.8621 C39.8777,49.3621 39.784,48.9767 39.5965,48.7058 C39.409,48.435 39.1433,48.2996 38.7996,48.2996 M41.3152,51.5183 L41.2996,51.3621 C41.9037,51.2579 42.4168,51.0001 42.8386,50.5887 C43.2605,50.1772 43.5548,49.6433 43.7215,48.9871 C43.3256,49.2996 42.9246,49.4558 42.5183,49.4558 C42.0912,49.4558 41.7449,49.3048 41.4793,49.0027 C41.2136,48.7006 41.0808,48.31 41.0808,47.8308 C41.0808,47.2892 41.2397,46.836 41.5574,46.4715 C41.8751,46.1069 42.2735,45.9246 42.7527,45.9246 C43.2631,45.9246 43.685,46.1355 44.0183,46.5574 C44.3517,46.9793 44.5183,47.5235 44.5183,48.1902 C44.5183,48.409 44.5001,48.6303 44.4636,48.8543 C44.4272,49.0782 44.3412,49.3439 44.2058,49.6512 C44.0704,49.9584 43.8933,50.2319 43.6746,50.4715 C43.4558,50.711 43.1433,50.9298 42.7371,51.1277 C42.3308,51.3256 41.8569,51.4558 41.3152,51.5183 M42.8152,49.0965 C42.9194,49.0965 43.034,49.0834 43.159,49.0574 C43.284,49.0314 43.4116,48.9689 43.5418,48.8699 C43.672,48.7709 43.7371,48.6485 43.7371,48.5027 L43.7371,48.1902 C43.7371,46.836 43.3881,46.159 42.6902,46.159 C42.5235,46.159 42.3803,46.2032 42.2605,46.2918 C42.1407,46.3803 42.0522,46.4975 41.9949,46.6433 C41.9376,46.7892 41.8933,46.935 41.8621,47.0808 C41.8308,47.2267 41.8152,47.3829 41.8152,47.5496 C41.8152,48.0288 41.9064,48.4064 42.0886,48.6824 C42.2709,48.9584 42.5131,49.0965 42.8152,49.0965"/>
<polyline class="BarLine" fill="none" stroke="#000000" stroke-width="0.80" stroke-linejoin="bevel" points="39.2465,63.3465 39.2465,135.847"/>
<polyline class="BarLine" fill="none" stroke="#000000" stroke-width="0.80" stroke-linejoin="bevel" points="566.529,63.3465 566.529,135.847"/>
<polyline class="BarLine" fill="none" stroke="#000000" stroke-width="0.80" stroke-linejoin="bevel" points="480.51,63.3465 480.51,135.847"/>
<polyline class="BarLine" fill="none" stroke="#000000" stroke-width="0.80" stroke-linejoin="bevel" points="386.923,63.3465 386.923,135.847"/>
<polyline class="BarLine" fill="none" stroke="#000000" stroke-width="0.80" stroke-linejoin="bevel" points="324.811,63.3465 324.811,135.847"/>
<polyline class="BarLine" fill="none" stroke="#000000" stroke-width="0.80" stroke-linejoin="bevel" points="261.498,63.3465 261.498,135.847"/>
<polyline class="BarLine" fill="none" stroke="#000000" stroke-width="0.80" stroke-linejoin="bevel" points="209.175,63.3465 209.175,135.847"/>
<polyline class="BarLine" fill="none" stroke="#000000" stroke-width="0.80" stroke-linejoin="bevel" points="138.294,63.3465 138.294,135.847"/>
<polyline class="BarLine" fill="none" stroke="#000000" stroke-width="0.80" stroke-linejoin="bevel" points="97.6884,63.3465 97.6884,135.847"/>
<path class="Accidental" d="M76.2025,77.0652 C76.265,77.2527 76.39,77.2684 76.4994,77.2684 C76.5619,77.2684 77.2806,77.0652 77.2806,77.0652 L77.2806,80.2527 L76.4994,80.4402 C76.4994,80.4402 76.2025,80.5496 76.2025,80.7996 L76.2025,82.1121 C76.265,82.284 76.39,82.2996 76.4994,82.2996 C76.5619,82.2996 77.2806,82.1121 77.2806,82.1121 L77.2806,85.5809 C77.2806,85.5809 77.2806,85.8621 77.5775,85.8621 C77.89,85.8621 77.89,85.5809 77.89,85.5809 L77.89,81.9715 L79.2494,81.6277 L79.2494,85.1121 C79.2494,85.1121 79.2494,85.3934 79.5463,85.3934 C79.8431,85.3934 79.8431,85.1121 79.8431,85.1121 L79.8431,81.4871 L80.6244,81.284 C80.6244,81.284 80.9213,81.1902 80.9213,80.9246 L80.9213,79.6277 C80.8588,79.4402 80.7494,79.4246 80.6244,79.4246 C80.5619,79.4246 79.8431,79.6277 79.8431,79.6277 L79.8431,76.4402 L80.6244,76.2527 C80.6244,76.2527 80.9213,76.1434 80.9213,75.8934 L80.9213,74.5809 C80.8588,74.409 80.7494,74.3934 80.6244,74.3934 C80.5619,74.3934 79.8431,74.5809 79.8431,74.5809 L79.8431,71.1121 C79.8431,71.1121 79.8431,70.8309 79.5463,70.8309 C79.2494,70.8309 79.2494,71.1121 79.2494,71.1121 L79.2494,74.7215 L77.89,75.0652 L77.89,71.5809 C77.89,71.5809 77.89,71.2996 77.5775,71.2996 C77.2806,71.2996 77.2806,71.5809 77.2806,71.5809 L77.2806,75.2059 L76.4994,75.409 C76.4994,75.409 76.2025,75.5027 76.2025,75.7684 L76.2025,77.0652 M77.89,76.9246 L79.2494,76.5809 L79.2494,79.7684 L77.89,80.1121 L77.89,76.9246 "/>
<polyline class="LedgerLine" fill="none" stroke="#000000" stroke-width="0.80" stroke-linecap="square" stroke-linejoin="bevel" points="467.291,110.847 476.61,110.847"/>
<polyline class="LedgerLine" fill="none" stroke="#000000" stroke-width="0.80" stroke-linecap="square" stroke-linejoin="bevel" points="440.175,110.847 449.494,110.847"/>
<polyline class="LedgerLine" fill="none" stroke="#000000" stroke-width="0.80" stroke-linecap="square" stroke-linejoin="bevel" points="296.673,58.3465 305.992,58.3465"/>
<polyline class="LedgerLine" fill="none" stroke="#000000" stroke-width="0.80" stroke-linecap="square" stroke-linejoin="bevel" points="246.48,140.847 255.799,140.847"/>
<polyline class="LedgerLine" fill="none" stroke="#000000" stroke-width="0.80" stroke-linecap="square" stroke-linejoin="bevel" points="179.482,110.847 188.801,110.847"/>
<polyline class="LedgerLine" fill="none" stroke="#000000" stroke-width="0.80" stroke-linecap="square" stroke-linejoin="bevel" points="155.439,110.847 164.758,110.847"/>
<polyline class="LedgerLine" fill="none" stroke="#000000" stroke-width="0.80" stroke-linecap="square" stroke-linejoin="bevel" points="125.076,110.847 134.394,110.847"/>
<polyline class="LedgerLine" fill="none" stroke="#000000" stroke-width="0.80" stroke-linecap="square" stroke-linejoin="bevel" points="80.5213,140.847 89.84,140.847"/>
<polyline class="Stem" fill="none" stroke="#000000" stroke-width="0.65" stroke-linecap="round" stroke-linejoin="bevel" points="555.135,114.019 555.135,130.847"/>
<polyline class="Stem" fill="none" stroke="#000000" stroke-width="0.65" stroke-linecap="round" stroke-linejoin="bevel" points="547.059,119.019 547.059,133.972"/>
<polyline class="Stem" fill="none" stroke="#000000" stroke-width="0.65" stroke-linecap="round" stroke-linejoin="bevel" points="538.982,124.019 538.982,137.097"/>
<polyline class="Stem" fill="none" stroke="#000000" stroke-width="0.65" stroke-linecap="round" stroke-linejoin="bevel" points="530.906,114.019 530.906,130.847"/>
<polyline class="Stem" fill="none" stroke="#000000" stroke-width="0.65" stroke-linecap="round" stroke-linejoin="bevel" points="522.83,119.019 522.83,133.972"/>
<polyline class="Stem" fill="none" stroke="#000000" stroke-width="0.65" stroke-linecap="round" stroke-linejoin="bevel" points="514.754,124.019 514.754,137.097"/>
<polyline class="Stem" fill="none" stroke="#000000" stroke-width="0.65" stroke-linecap="round" stroke-linejoin="bevel" points="514.754,66.5185 514.754,83.3465"/>
<polyline class="Stem" fill="none" stroke="#000000" stroke-width="0.65" stroke-linecap="round" stroke-linejoin="bevel" points="506.678,114.019 506.678,130.847"/>
<polyline class="Stem" fill="none" stroke="#000000" stroke-width="0.65" stroke-linecap="round" stroke-linejoin="bevel" points="500.359,61.5185 500.359,77.0965"/>
<polyline class="Stem" fill="none" stroke="#000000" stroke-width="0.65" stroke-linecap="round" stroke-linejoin="bevel" points="495.311,119.019 495.311,134.5"/>
<polyline class="Stem" fill="none" stroke="#000000" stroke-width="0.65" stroke-linecap="round" stroke-linejoin="bevel" points="487.235,124.019 487.235,137.097"/>
<polyline class="Stem" fill="none" stroke="#000000" stroke-width="0.65" stroke-linecap="round" stroke-linejoin="bevel" points="487.235,64.0185 487.235,78.3465"/>
<polyline class="Stem" fill="none" stroke="#000000" stroke-width="0.65" stroke-linecap="round" stroke-linejoin="bevel" points="469.116,109.019 469.116,130.847"/>
<polyline class="Stem" fill="none" stroke="#000000" stroke-width="0.65" stroke-linecap="round" stroke-linejoin="bevel" points="460.078,116.519 460.078,133.347"/>
<polyline class="Stem" fill="none" stroke="#000000" stroke-width="0.65" stroke-linecap="round" stroke-linejoin="bevel" points="451.039,121.519 451.039,135.847"/>
<polyline class="Stem" fill="none" stroke="#000000" stroke-width="0.65" stroke-linecap="round" stroke-linejoin="bevel" points="442,109.019 442,130.847"/>
<polyline class="Stem" fill="none" stroke="#000000" stroke-width="0.65" stroke-linecap="round" stroke-linejoin="bevel" points="432.962,116.519 432.962,133.347"/>
<polyline class="Stem" fill="none" stroke="#000000" stroke-width="0.65" stroke-linecap="round" stroke-linejoin="bevel" points="423.923,121.519 423.923,135.847"/>
<polyline class="Stem" fill="none" stroke="#000000" stroke-width="0.65" stroke-linecap="round" stroke-linejoin="bevel" points="429.592,75.1745 429.592,59.5965"/>
<polyline class="Stem" fill="none" stroke="#000000" stroke-width="0.65" stroke-linecap="round" stroke-linejoin="bevel" points="416.354,69.0185 416.354,87.0965"/>
<polyline class="Stem" fill="none" stroke="#000000" stroke-width="0.65" stroke-linecap="round" stroke-linejoin="bevel" points="408.785,71.5185 408.785,87.0965"/>
<polyline class="Stem" fill="none" stroke="#000000" stroke-width="0.65" stroke-linecap="round" stroke-linejoin="bevel" points="401.217,69.0185 401.217,87.0965"/>
<polyline class="Stem" fill="none" stroke="#000000" stroke-width="0.65" stroke-linecap="round" stroke-linejoin="bevel" points="393.648,66.5185 393.648,87.0965"/>
<polyline class="Stem" fill="none" stroke="#000000" stroke-width="0.65" stroke-linecap="round" stroke-linejoin="bevel" points="375.529,74.0185 375.529,88.3465"/>
<polyline class="Stem" fill="none" stroke="#000000" stroke-width="0.65" stroke-linecap="round" stroke-linejoin="bevel" points="372.399,135.175 372.399,104.596"/>
<polyline class="Stem" fill="none" stroke="#000000" stroke-width="0.65" stroke-linecap="round" stroke-linejoin="bevel" points="366.73,71.5185 366.73,87.0965"/>
<polyline class="Stem" fill="none" stroke="#000000" stroke-width="0.65" stroke-linecap="round" stroke-linejoin="bevel" points="357.932,71.5185 357.932,84.5965"/>
<polyline class="Stem" fill="none" stroke="#000000" stroke-width="0.65" stroke-linecap="round" stroke-linejoin="bevel" points="349.133,116.519 349.133,147.097"/>
<polyline class="Stem" fill="none" stroke="#000000" stroke-width="0.65" stroke-linecap="round" stroke-linejoin="bevel" points="349.133,69.0185 349.133,83.3465"/>
<polyline class="Stem" fill="none" stroke="#000000" stroke-width="0.65" stroke-linecap="round" stroke-linejoin="bevel" points="340.334,69.0185 340.334,85.8465"/>
<polyline class="Stem" fill="none" stroke="#000000" stroke-width="0.65" stroke-linecap="round" stroke-linejoin="bevel" points="331.536,114.019 331.536,145.222"/>
<polyline class="Stem" fill="none" stroke="#000000" stroke-width="0.65" stroke-linecap="round" stroke-linejoin="bevel" points="311.617,116.519 311.617,147.097"/>
<polyline class="Stem" fill="none" stroke="#000000" stroke-width="0.65" stroke-linecap="round" stroke-linejoin="bevel" points="317.286,82.6745 317.286,55.8465"/>
<polyline class="Stem" fill="none" stroke="#000000" stroke-width="0.65" stroke-linecap="round" stroke-linejoin="bevel" points="298.498,59.0185 298.498,75.8465"/>
<polyline class="Stem" fill="none" stroke="#000000" stroke-width="0.65" stroke-linecap="round" stroke-linejoin="bevel" points="290.93,66.5185 290.93,83.3465"/>
<polyline class="Stem" fill="none" stroke="#000000" stroke-width="0.65" stroke-linecap="round" stroke-linejoin="bevel" points="283.361,61.5185 283.361,85.0132"/>
<polyline class="Stem" fill="none" stroke="#000000" stroke-width="0.65" stroke-linecap="round" stroke-linejoin="bevel" points="275.792,66.5185 275.792,86.6798"/>
<polyline class="Stem" fill="none" stroke="#000000" stroke-width="0.65" stroke-linecap="round" stroke-linejoin="bevel" points="273.892,135.175 273.892,104.596"/>
<polyline class="Stem" fill="none" stroke="#000000" stroke-width="0.65" stroke-linecap="round" stroke-linejoin="bevel" points="268.223,74.0185 268.223,88.3465"/>
<polyline class="Stem" fill="none" stroke="#000000" stroke-width="0.65" stroke-linecap="round" stroke-linejoin="bevel" points="253.974,142.675 253.974,125.847"/>
<polyline class="Stem" fill="none" stroke="#000000" stroke-width="0.65" stroke-linecap="round" stroke-linejoin="bevel" points="246.405,137.675 246.405,120.847"/>
<polyline class="Stem" fill="none" stroke="#000000" stroke-width="0.65" stroke-linecap="round" stroke-linejoin="bevel" points="234.688,132.675 234.688,117.097"/>
<polyline class="Stem" fill="none" stroke="#000000" stroke-width="0.65" stroke-linecap="round" stroke-linejoin="bevel" points="215.9,126.519 215.9,141.472"/>
<polyline class="Stem" fill="none" stroke="#000000" stroke-width="0.65" stroke-linecap="round" stroke-linejoin="bevel" points="215.9,69.0185 215.9,85.2215"/>
<polyline class="Stem" fill="none" stroke="#000000" stroke-width="0.65" stroke-linecap="round" stroke-linejoin="bevel" points="197.782,69.0185 197.782,83.3465"/>
<polyline class="Stem" fill="none" stroke="#000000" stroke-width="0.65" stroke-linecap="round" stroke-linejoin="bevel" points="190.213,66.5185 190.213,81.0493"/>
<polyline class="Stem" fill="none" stroke="#000000" stroke-width="0.65" stroke-linecap="round" stroke-linejoin="bevel" points="181.307,109.019 181.307,141.472"/>
<polyline class="Stem" fill="none" stroke="#000000" stroke-width="0.65" stroke-linecap="round" stroke-linejoin="bevel" points="181.307,64.0185 181.307,78.3465"/>
<polyline class="Stem" fill="none" stroke="#000000" stroke-width="0.65" stroke-linecap="round" stroke-linejoin="bevel" points="173.739,66.5185 173.739,82.0965"/>
<polyline class="Stem" fill="none" stroke="#000000" stroke-width="0.65" stroke-linecap="round" stroke-linejoin="bevel" points="166.17,64.0185 166.17,80.3736"/>
<polyline class="Stem" fill="none" stroke="#000000" stroke-width="0.65" stroke-linecap="round" stroke-linejoin="bevel" points="157.264,111.519 157.264,143.347"/>
<polyline class="Stem" fill="none" stroke="#000000" stroke-width="0.65" stroke-linecap="round" stroke-linejoin="bevel" points="157.264,61.5185 157.264,78.3465"/>
<polyline class="Stem" fill="none" stroke="#000000" stroke-width="0.65" stroke-linecap="round" stroke-linejoin="bevel" points="145.019,114.019 145.019,145.222"/>
<polyline class="Stem" fill="none" stroke="#000000" stroke-width="0.65" stroke-linecap="round" stroke-linejoin="bevel" points="145.019,61.5185 145.019,78.3465"/>
<polyline class="Stem" fill="none" stroke="#000000" stroke-width="0.65" stroke-linecap="round" stroke-linejoin="bevel" points="126.901,109.019 126.901,125.847"/>
<polyline class="Stem" fill="none" stroke="#000000" stroke-width="0.65" stroke-linecap="round" stroke-linejoin="bevel" points="115.657,116.519 115.657,133.347"/>
<polyline class="Stem" fill="none" stroke="#000000" stroke-width="0.65" stroke-linecap="round" stroke-linejoin="bevel" points="104.413,126.519 104.413,141.472"/>
<polyline class="Stem" fill="none" stroke="#000000" stroke-width="0.65" stroke-linecap="round" stroke-linejoin="bevel" points="104.413,69.0185 104.413,85.2215"/>
<polyline class="Stem" fill="none" stroke="#000000" stroke-width="0.65" stroke-linecap="round" stroke-linejoin="bevel" points="88.015,140.175 88.015,123.347"/>
<polyline class="Stem" fill="none" stroke="#000000" stroke-width="0.65" stroke-linecap="round" stroke-linejoin="bevel" points="88.015,77.6745 88.015,57.7215"/>
<polyline class="Stem" fill="none" stroke="#000000" stroke-width="0.65" stroke-linecap="round" stroke-linejoin="bevel" points="67.0792,124.019 67.0792,139.597"/>
<polyline class="Stem" fill="none" stroke="#000000" stroke-width="0.65" stroke-linecap="round" stroke-linejoin="bevel" points="67.0792,71.5185 67.0792,90.8465"/>
<polyline class="Stem" fill="none" stroke="#000000" stroke-width="0.65" stroke-linecap="round" stroke-linejoin="bevel" points="65.1792,75.1745 65.1792,59.5965"/>
<polyline class="Stem" fill="none" stroke="#000000" stroke-width="0.65" stroke-linecap="round" stroke-linejoin="bevel" points="51.6402,82.6745 51.6402,63.3465"/>
<path class="Note" d="M554.81,114.081 C554.81,115.253 555.763,116.05 557.107,116.05 C559.185,116.05 561.138,114.44 561.138,112.612 C561.138,111.44 560.169,110.643 558.825,110.643 C556.747,110.643 554.81,112.253 554.81,114.081"/>
<path class="Note" d="M546.734,119.081 C546.734,120.253 547.687,121.05 549.03,121.05 C551.109,121.05 553.062,119.44 553.062,117.612 C553.062,116.44 552.093,115.643 550.749,115.643 C548.671,115.643 546.734,117.253 546.734,119.081"/>
<path class="Note" d="M538.657,124.081 C538.657,125.253 539.611,126.05 540.954,126.05 C543.032,126.05 544.986,124.44 544.986,122.612 C544.986,121.44 544.017,120.643 542.673,120.643 C540.595,120.643 538.657,122.253 538.657,124.081"/>
<path class="Note" d="M530.581,114.081 C530.581,115.253 531.534,116.05 532.878,116.05 C534.956,116.05 536.909,114.44 536.909,112.612 C536.909,111.44 535.941,110.643 534.597,110.643 C532.519,110.643 530.581,112.253 530.581,114.081"/>
<path class="Note" d="M522.505,119.081 C522.505,120.253 523.458,121.05 524.802,121.05 C526.88,121.05 528.833,119.44 528.833,117.612 C528.833,116.44 527.864,115.643 526.521,115.643 C524.443,115.643 522.505,117.253 522.505,119.081"/>
<path class="Note" d="M514.429,124.081 C514.429,125.253 515.382,126.05 516.726,126.05 C518.804,126.05 520.757,124.44 520.757,122.612 C520.757,121.44 519.788,120.643 518.444,120.643 C516.366,120.643 514.429,122.253 514.429,124.081"/>
<path class="Note" d="M514.429,66.5808 C514.429,67.7527 515.382,68.5496 516.726,68.5496 C518.804,68.5496 520.757,66.9402 520.757,65.1121 C520.757,63.9402 519.788,63.1433 518.444,63.1433 C516.366,63.1433 514.429,64.7527 514.429,66.5808"/>
<path class="Note" d="M506.353,114.081 C506.353,115.253 507.306,116.05 508.65,116.05 C510.728,116.05 512.681,114.44 512.681,112.612 C512.681,111.44 511.712,110.643 510.368,110.643 C508.29,110.643 506.353,112.253 506.353,114.081"/>
<path class="Note" d="M500.034,61.5808 C500.034,62.7527 500.987,63.5496 502.331,63.5496 C504.409,63.5496 506.362,61.9402 506.362,60.1121 C506.362,58.9402 505.393,58.1433 504.05,58.1433 C501.971,58.1433 500.034,59.7527 500.034,61.5808"/>
<path class="Note" d="M494.986,119.081 C494.986,120.253 495.939,121.05 497.283,121.05 C499.361,121.05 501.314,119.44 501.314,117.612 C501.314,116.44 500.346,115.643 499.002,115.643 C496.924,115.643 494.986,117.253 494.986,119.081"/>
<path class="Note" d="M486.91,124.081 C486.91,125.253 487.863,126.05 489.207,126.05 C491.285,126.05 493.238,124.44 493.238,122.612 C493.238,121.44 492.269,120.643 490.926,120.643 C488.848,120.643 486.91,122.253 486.91,124.081"/>
<path class="Note" d="M486.91,64.0808 C486.91,65.2527 487.863,66.0496 489.207,66.0496 C491.285,66.0496 493.238,64.4402 493.238,62.6121 C493.238,61.4402 492.269,60.6433 490.926,60.6433 C488.848,60.6433 486.91,62.2527 486.91,64.0808"/>
<path class="Note" d="M468.791,109.081 C468.791,110.253 469.744,111.05 471.088,111.05 C473.166,111.05 475.119,109.44 475.119,107.612 C475.119,106.44 474.151,105.643 472.807,105.643 C470.729,105.643 468.791,107.253 468.791,109.081"/>
<path class="Note" d="M459.753,116.581 C459.753,117.753 460.706,118.55 462.049,118.55 C464.128,118.55 466.081,116.94 466.081,115.112 C466.081,113.94 465.112,113.143 463.768,113.143 C461.69,113.143 459.753,114.753 459.753,116.581"/>
<path class="Note" d="M450.714,121.581 C450.714,122.753 451.667,123.55 453.011,123.55 C455.089,123.55 457.042,121.94 457.042,120.112 C457.042,118.94 456.073,118.143 454.73,118.143 C452.651,118.143 450.714,119.753 450.714,121.581"/>
<path class="Note" d="M441.675,109.081 C441.675,110.253 442.628,111.05 443.972,111.05 C446.05,111.05 448.003,109.44 448.003,107.612 C448.003,106.44 447.035,105.643 445.691,105.643 C443.613,105.643 441.675,107.253 441.675,109.081"/>
<path class="Note" d="M432.637,116.581 C432.637,117.753 433.59,118.55 434.933,118.55 C437.012,118.55 438.965,116.94 438.965,115.112 C438.965,113.94 437.996,113.143 436.652,113.143 C434.574,113.143 432.637,114.753 432.637,116.581"/>
<path class="Note" d="M423.598,121.581 C423.598,122.753 424.551,123.55 425.895,123.55 C427.973,123.55 429.926,121.94 429.926,120.112 C429.926,118.94 428.957,118.143 427.613,118.143 C425.535,118.143 423.598,119.753 423.598,121.581"/>
<path class="Note" d="M423.598,76.5809 C423.598,77.7527 424.551,78.5496 425.895,78.5496 C427.973,78.5496 429.926,76.9402 429.926,75.1121 C429.926,73.9402 428.957,73.1434 427.613,73.1434 C425.535,73.1434 423.598,74.7527 423.598,76.5809 M424.301,77.4402 C424.301,76.4715 427.535,73.8934 428.785,73.8934 C429.067,73.8934 429.223,74.0184 429.223,74.2527 C429.223,75.2215 425.973,77.7996 424.738,77.7996 C424.457,77.7996 424.301,77.6746 424.301,77.4402"/>
<path class="Note" d="M416.029,69.0809 C416.029,70.2527 416.982,71.0496 418.326,71.0496 C420.404,71.0496 422.357,69.4402 422.357,67.6121 C422.357,66.4402 421.388,65.6434 420.045,65.6434 C417.967,65.6434 416.029,67.2527 416.029,69.0809"/>
<path class="Note" d="M408.46,71.5809 C408.46,72.7527 409.413,73.5496 410.757,73.5496 C412.835,73.5496 414.788,71.9402 414.788,70.1121 C414.788,68.9402 413.82,68.1434 412.476,68.1434 C410.398,68.1434 408.46,69.7527 408.46,71.5809"/>
<path class="Note" d="M400.892,69.0809 C400.892,70.2527 401.845,71.0496 403.188,71.0496 C405.267,71.0496 407.22,69.4402 407.22,67.6121 C407.22,66.4402 406.251,65.6434 404.907,65.6434 C402.829,65.6434 400.892,67.2527 400.892,69.0809"/>
<path class="Note" d="M393.323,66.5808 C393.323,67.7527 394.276,68.5496 395.62,68.5496 C397.698,68.5496 399.651,66.9402 399.651,65.1121 C399.651,63.9402 398.682,63.1433 397.338,63.1433 C395.26,63.1433 393.323,64.7527 393.323,66.5808"/>
<path class="Note" d="M375.204,74.0809 C375.204,75.2527 376.157,76.0496 377.501,76.0496 C379.579,76.0496 381.532,74.4402 381.532,72.6121 C381.532,71.4402 380.563,70.6434 379.22,70.6434 C377.142,70.6434 375.204,72.2527 375.204,74.0809"/>
<path class="Note" d="M366.405,119.081 C366.405,120.253 367.359,121.05 368.702,121.05 C370.78,121.05 372.734,119.44 372.734,117.612 C372.734,116.44 371.765,115.643 370.421,115.643 C368.343,115.643 366.405,117.253 366.405,119.081"/>
<path class="Note" d="M366.405,136.581 C366.405,137.753 367.359,138.55 368.702,138.55 C370.78,138.55 372.734,136.94 372.734,135.112 C372.734,133.94 371.765,133.143 370.421,133.143 C368.343,133.143 366.405,134.753 366.405,136.581"/>
<path class="Note" d="M366.405,71.5809 C366.405,72.7527 367.359,73.5496 368.702,73.5496 C370.78,73.5496 372.734,71.9402 372.734,70.1121 C372.734,68.9402 371.765,68.1434 370.421,68.1434 C368.343,68.1434 366.405,69.7527 366.405,71.5809"/>
<path class="Note" d="M357.607,71.5809 C357.607,72.7527 358.56,73.5496 359.904,73.5496 C361.982,73.5496 363.935,71.9402 363.935,70.1121 C363.935,68.9402 362.966,68.1434 361.622,68.1434 C359.544,68.1434 357.607,69.7527 357.607,71.5809"/>
<path class="Note" d="M348.808,116.581 C348.808,117.753 349.761,118.55 351.105,118.55 C353.183,118.55 355.136,116.94 355.136,115.112 C355.136,113.94 354.167,113.143 352.824,113.143 C350.746,113.143 348.808,114.753 348.808,116.581"/>
<path class="Note" d="M348.808,134.081 C348.808,135.253 349.761,136.05 351.105,136.05 C353.183,136.05 355.136,134.44 355.136,132.612 C355.136,131.44 354.167,130.643 352.824,130.643 C350.746,130.643 348.808,132.253 348.808,134.081"/>
<path class="Note" d="M348.808,69.0809 C348.808,70.2527 349.761,71.0496 351.105,71.0496 C353.183,71.0496 355.136,69.4402 355.136,67.6121 C355.136,66.4402 354.167,65.6434 352.824,65.6434 C350.746,65.6434 348.808,67.2527 348.808,69.0809"/>
<path class="Note" d="M340.009,69.0809 C340.009,70.2527 340.962,71.0496 342.306,71.0496 C344.384,71.0496 346.337,69.4402 346.337,67.6121 C346.337,66.4402 345.369,65.6434 344.025,65.6434 C341.947,65.6434 340.009,67.2527 340.009,69.0809"/>
<path class="Note" d="M331.211,114.081 C331.211,115.253 332.164,116.05 333.508,116.05 C335.586,116.05 337.539,114.44 337.539,112.612 C337.539,111.44 336.57,110.643 335.226,110.643 C333.148,110.643 331.211,112.253 331.211,114.081"/>
<path class="Note" d="M331.211,131.581 C331.211,132.753 332.164,133.55 333.508,133.55 C335.586,133.55 337.539,131.94 337.539,130.112 C337.539,128.94 336.57,128.143 335.226,128.143 C333.148,128.143 331.211,129.753 331.211,131.581"/>
<path class="Note" d="M311.292,116.581 C311.292,117.753 312.245,118.55 313.589,118.55 C315.667,118.55 317.62,116.94 317.62,115.112 C317.62,113.94 316.651,113.143 315.308,113.143 C313.23,113.143 311.292,114.753 311.292,116.581"/>
<path class="Note" d="M311.292,134.081 C311.292,135.253 312.245,136.05 313.589,136.05 C315.667,136.05 317.62,134.44 317.62,132.612 C317.62,131.44 316.651,130.643 315.308,130.643 C313.23,130.643 311.292,132.253 311.292,134.081"/>
<path class="Note" d="M311.292,71.5809 C311.292,72.7527 312.245,73.5496 313.589,73.5496 C315.667,73.5496 317.62,71.9402 317.62,70.1121 C317.62,68.9402 316.651,68.1434 315.308,68.1434 C313.23,68.1434 311.292,69.7527 311.292,71.5809"/>
<path class="Note" d="M311.292,84.0809 C311.292,85.2527 312.245,86.0496 313.589,86.0496 C315.667,86.0496 317.62,84.4402 317.62,82.6121 C317.62,81.4402 316.651,80.6434 315.308,80.6434 C313.23,80.6434 311.292,82.2527 311.292,84.0809"/>
<path class="Note" d="M298.173,59.0808 C298.173,60.2527 299.127,61.0496 300.47,61.0496 C302.548,61.0496 304.502,59.4402 304.502,57.6121 C304.502,56.4402 303.533,55.6433 302.189,55.6433 C300.111,55.6433 298.173,57.2527 298.173,59.0808"/>
<path class="Note" d="M290.605,66.5808 C290.605,67.7527 291.558,68.5496 292.902,68.5496 C294.98,68.5496 296.933,66.9402 296.933,65.1121 C296.933,63.9402 295.964,63.1433 294.62,63.1433 C292.542,63.1433 290.605,64.7527 290.605,66.5808"/>
<path class="Note" d="M283.036,61.5808 C283.036,62.7527 283.989,63.5496 285.333,63.5496 C287.411,63.5496 289.364,61.9402 289.364,60.1121 C289.364,58.9402 288.395,58.1433 287.052,58.1433 C284.973,58.1433 283.036,59.7527 283.036,61.5808"/>
<path class="Note" d="M275.467,66.5808 C275.467,67.7527 276.42,68.5496 277.764,68.5496 C279.842,68.5496 281.795,66.9402 281.795,65.1121 C281.795,63.9402 280.827,63.1433 279.483,63.1433 C277.405,63.1433 275.467,64.7527 275.467,66.5808"/>
<path class="Note" d="M267.898,119.081 C267.898,120.253 268.852,121.05 270.195,121.05 C272.273,121.05 274.227,119.44 274.227,117.612 C274.227,116.44 273.258,115.643 271.914,115.643 C269.836,115.643 267.898,117.253 267.898,119.081"/>
<path class="Note" d="M267.898,136.581 C267.898,137.753 268.852,138.55 270.195,138.55 C272.273,138.55 274.227,136.94 274.227,135.112 C274.227,133.94 273.258,133.143 271.914,133.143 C269.836,133.143 267.898,134.753 267.898,136.581"/>
<path class="Note" d="M267.898,74.0809 C267.898,75.2527 268.852,76.0496 270.195,76.0496 C272.273,76.0496 274.227,74.4402 274.227,72.6121 C274.227,71.4402 273.258,70.6434 271.914,70.6434 C269.836,70.6434 267.898,72.2527 267.898,74.0809"/>
<path class="Note" d="M247.98,144.081 C247.98,145.253 248.933,146.05 250.277,146.05 C252.355,146.05 254.308,144.44 254.308,142.612 C254.308,141.44 253.339,140.643 251.995,140.643 C249.917,140.643 247.98,142.253 247.98,144.081"/>
<path class="Note" d="M240.411,139.081 C240.411,140.253 241.364,141.05 242.708,141.05 C244.786,141.05 246.739,139.44 246.739,137.612 C246.739,136.44 245.77,135.643 244.427,135.643 C242.349,135.643 240.411,137.253 240.411,139.081"/>
<path class="Note" d="M228.694,134.081 C228.694,135.253 229.647,136.05 230.991,136.05 C233.069,136.05 235.022,134.44 235.022,132.612 C235.022,131.44 234.053,130.643 232.709,130.643 C230.631,130.643 228.694,132.253 228.694,134.081"/>
<path class="Note" d="M215.575,126.581 C215.575,127.753 216.528,128.55 217.872,128.55 C219.95,128.55 221.903,126.94 221.903,125.112 C221.903,123.94 220.935,123.143 219.591,123.143 C217.513,123.143 215.575,124.753 215.575,126.581"/>
<path class="Note" d="M215.575,69.0809 C215.575,70.2527 216.528,71.0496 217.872,71.0496 C219.95,71.0496 221.903,69.4402 221.903,67.6121 C221.903,66.4402 220.935,65.6434 219.591,65.6434 C217.513,65.6434 215.575,67.2527 215.575,69.0809 M216.278,69.9402 C216.278,68.9715 219.513,66.3934 220.763,66.3934 C221.044,66.3934 221.2,66.5184 221.2,66.7527 C221.2,67.7215 217.95,70.2996 216.716,70.2996 C216.435,70.2996 216.278,70.1746 216.278,69.9402"/>
<path class="Note" d="M197.457,69.0809 C197.457,70.2527 198.41,71.0496 199.753,71.0496 C201.832,71.0496 203.785,69.4402 203.785,67.6121 C203.785,66.4402 202.816,65.6434 201.472,65.6434 C199.394,65.6434 197.457,67.2527 197.457,69.0809"/>
<path class="Note" d="M189.888,66.5808 C189.888,67.7527 190.841,68.5496 192.185,68.5496 C194.263,68.5496 196.216,66.9402 196.216,65.1121 C196.216,63.9402 195.247,63.1433 193.903,63.1433 C191.825,63.1433 189.888,64.7527 189.888,66.5808"/>
<path class="Note" d="M180.982,109.081 C180.982,110.253 181.935,111.05 183.279,111.05 C185.357,111.05 187.31,109.44 187.31,107.612 C187.31,106.44 186.342,105.643 184.998,105.643 C182.92,105.643 180.982,107.253 180.982,109.081"/>
<path class="Note" d="M180.982,126.581 C180.982,127.753 181.935,128.55 183.279,128.55 C185.357,128.55 187.31,126.94 187.31,125.112 C187.31,123.94 186.342,123.143 184.998,123.143 C182.92,123.143 180.982,124.753 180.982,126.581"/>
<path class="Note" d="M180.982,64.0808 C180.982,65.2527 181.935,66.0496 183.279,66.0496 C185.357,66.0496 187.31,64.4402 187.31,62.6121 C187.31,61.4402 186.342,60.6433 184.998,60.6433 C182.92,60.6433 180.982,62.2527 180.982,64.0808"/>
<path class="Note" d="M173.414,66.5808 C173.414,67.7527 174.367,68.5496 175.71,68.5496 C177.789,68.5496 179.742,66.9402 179.742,65.1121 C179.742,63.9402 178.773,63.1433 177.429,63.1433 C175.351,63.1433 173.414,64.7527 173.414,66.5808"/>
<path class="Note" d="M165.845,64.0808 C165.845,65.2527 166.798,66.0496 168.142,66.0496 C170.22,66.0496 172.173,64.4402 172.173,62.6121 C172.173,61.4402 171.204,60.6433 169.86,60.6433 C167.782,60.6433 165.845,62.2527 165.845,64.0808"/>
<path class="Note" d="M156.939,111.581 C156.939,112.753 157.892,113.55 159.236,113.55 C161.314,113.55 163.267,111.94 163.267,110.112 C163.267,108.94 162.299,108.143 160.955,108.143 C158.877,108.143 156.939,109.753 156.939,111.581"/>
<path class="Note" d="M156.939,129.081 C156.939,130.253 157.892,131.05 159.236,131.05 C161.314,131.05 163.267,129.44 163.267,127.612 C163.267,126.44 162.299,125.643 160.955,125.643 C158.877,125.643 156.939,127.253 156.939,129.081"/>
<path class="Note" d="M156.939,61.5808 C156.939,62.7527 157.892,63.5496 159.236,63.5496 C161.314,63.5496 163.267,61.9402 163.267,60.1121 C163.267,58.9402 162.299,58.1433 160.955,58.1433 C158.877,58.1433 156.939,59.7527 156.939,61.5808"/>
<path class="Note" d="M144.694,114.081 C144.694,115.253 145.647,116.05 146.991,116.05 C149.069,116.05 151.022,114.44 151.022,112.612 C151.022,111.44 150.054,110.643 148.71,110.643 C146.632,110.643 144.694,112.253 144.694,114.081"/>
<path class="Note" d="M144.694,131.581 C144.694,132.753 145.647,133.55 146.991,133.55 C149.069,133.55 151.022,131.94 151.022,130.112 C151.022,128.94 150.054,128.143 148.71,128.143 C146.632,128.143 144.694,129.753 144.694,131.581"/>
<path class="Note" d="M144.694,61.5808 C144.694,62.7527 145.647,63.5496 146.991,63.5496 C149.069,63.5496 151.022,61.9402 151.022,60.1121 C151.022,58.9402 150.054,58.1433 148.71,58.1433 C146.632,58.1433 144.694,59.7527 144.694,61.5808"/>
<path class="Note" d="M126.576,109.081 C126.576,110.253 127.529,111.05 128.872,111.05 C130.951,111.05 132.904,109.44 132.904,107.612 C132.904,106.44 131.935,105.643 130.591,105.643 C128.513,105.643 126.576,107.253 126.576,109.081"/>
<path class="Note" d="M115.332,116.581 C115.332,117.753 116.285,118.55 117.629,118.55 C119.707,118.55 121.66,116.94 121.66,115.112 C121.66,113.94 120.691,113.143 119.348,113.143 C117.269,113.143 115.332,114.753 115.332,116.581"/>
<path class="Note" d="M104.088,126.581 C104.088,127.753 105.041,128.55 106.385,128.55 C108.463,128.55 110.416,126.94 110.416,125.112 C110.416,123.94 109.448,123.143 108.104,123.143 C106.026,123.143 104.088,124.753 104.088,126.581"/>
<path class="Note" d="M104.088,69.0809 C104.088,70.2527 105.041,71.0496 106.385,71.0496 C108.463,71.0496 110.416,69.4402 110.416,67.6121 C110.416,66.4402 109.448,65.6434 108.104,65.6434 C106.026,65.6434 104.088,67.2527 104.088,69.0809 M104.791,69.9402 C104.791,68.9715 108.026,66.3934 109.276,66.3934 C109.557,66.3934 109.713,66.5184 109.713,66.7527 C109.713,67.7215 106.463,70.2996 105.229,70.2996 C104.948,70.2996 104.791,70.1746 104.791,69.9402"/>
<path class="Note" d="M82.0213,141.581 C82.0213,142.753 82.9744,143.55 84.3181,143.55 C86.3963,143.55 88.3494,141.94 88.3494,140.112 C88.3494,138.94 87.3806,138.143 86.0369,138.143 C83.9588,138.143 82.0213,139.753 82.0213,141.581"/>
<path class="Note" d="M82.0213,74.0809 C82.0213,75.2527 82.9744,76.0496 84.3181,76.0496 C86.3963,76.0496 88.3494,74.4402 88.3494,72.6121 C88.3494,71.4402 87.3806,70.6434 86.0369,70.6434 C83.9588,70.6434 82.0213,72.2527 82.0213,74.0809"/>
<path class="Note" d="M82.0213,79.0809 C82.0213,80.2527 82.9744,81.0496 84.3181,81.0496 C86.3963,81.0496 88.3494,79.4402 88.3494,77.6121 C88.3494,76.4402 87.3806,75.6434 86.0369,75.6434 C83.9588,75.6434 82.0213,77.2527 82.0213,79.0809"/>
<path class="Note" d="M66.7542,124.081 C66.7542,125.253 67.7073,126.05 69.0511,126.05 C71.1292,126.05 73.0823,124.44 73.0823,122.612 C73.0823,121.44 72.1136,120.643 70.7698,120.643 C68.6917,120.643 66.7542,122.253 66.7542,124.081"/>
<path class="Note" d="M66.7542,71.5809 C66.7542,72.7527 67.7073,73.5496 69.0511,73.5496 C71.1292,73.5496 73.0823,71.9402 73.0823,70.1121 C73.0823,68.9402 72.1136,68.1434 70.7698,68.1434 C68.6917,68.1434 66.7542,69.7527 66.7542,71.5809"/>
<path class="Note" d="M66.7542,76.5809 C66.7542,77.7527 67.7073,78.5496 69.0511,78.5496 C71.1292,78.5496 73.0823,76.9402 73.0823,75.1121 C73.0823,73.9402 72.1136,73.1434 70.7698,73.1434 C68.6917,73.1434 66.7542,74.7527 66.7542,76.5809"/>
<path class="Note" d="M59.1854,76.5809 C59.1854,77.7527 60.1386,78.5496 61.4823,78.5496 C63.5604,78.5496 65.5136,76.9402 65.5136,75.1121 C65.5136,73.9402 64.5448,73.1434 63.2011,73.1434 C61.1229,73.1434 59.1854,74.7527 59.1854,76.5809"/>
<path class="Note" d="M45.6465,84.0809 C45.6465,85.2527 46.5996,86.0496 47.9433,86.0496 C50.0215,86.0496 51.9746,84.4402 51.9746,82.6121 C51.9746,81.4402 51.0058,80.6434 49.6621,80.6434 C47.584,80.6434 45.6465,82.2527 45.6465,84.0809"/>
<path class="Rest" d="M538.657,77.1121 C538.657,78.3934 539.517,79.5809 540.892,80.5027 C541.017,80.5809 541.079,80.6121 541.173,80.6121 C541.282,80.6121 541.376,80.534 541.376,80.4246 C541.376,80.3309 541.345,80.2684 541.22,80.1434 C540.642,79.5652 540.361,78.8934 540.361,78.2215 C540.361,77.5652 540.642,76.9402 541.251,76.534 C541.532,76.3465 541.814,76.2527 542.173,76.2527 C542.298,76.2527 542.454,76.2684 542.517,76.284 C542.579,76.2996 542.736,76.3465 542.845,76.3465 C543.001,76.3465 543.095,76.2215 543.095,76.0809 C543.095,75.9871 543.079,75.909 542.611,75.5027 C542.157,75.1121 541.751,73.9715 541.751,72.7996 C541.751,72.2684 542.064,71.5027 542.392,70.8465 C542.736,70.1902 542.986,69.5184 542.986,69.1434 C542.986,68.2527 539.704,66.0496 539.454,66.0496 C539.298,66.0496 539.22,66.1434 539.22,66.2527 C539.22,66.3309 539.251,66.409 539.345,66.4871 C539.97,67.1277 540.282,68.0184 540.282,69.0184 C540.282,70.1902 539.97,71.5184 539.064,72.534 C538.923,72.659 538.923,72.7059 538.923,72.784 C538.923,73.0027 541.814,75.4871 541.814,75.4871 C541.814,75.4871 541.142,75.3621 540.861,75.3621 C539.704,75.3621 538.657,75.9402 538.657,77.1121"/>
<path class="Rest" d="M393.323,129.612 C393.323,130.893 394.182,132.081 395.557,133.003 C395.682,133.081 395.745,133.112 395.838,133.112 C395.948,133.112 396.042,133.034 396.042,132.925 C396.042,132.831 396.01,132.768 395.885,132.643 C395.307,132.065 395.026,131.393 395.026,130.722 C395.026,130.065 395.307,129.44 395.917,129.034 C396.198,128.847 396.479,128.753 396.838,128.753 C396.963,128.753 397.12,128.768 397.182,128.784 C397.245,128.8 397.401,128.847 397.51,128.847 C397.667,128.847 397.76,128.722 397.76,128.581 C397.76,128.487 397.745,128.409 397.276,128.003 C396.823,127.612 396.417,126.472 396.417,125.3 C396.417,124.768 396.729,124.003 397.057,123.347 C397.401,122.69 397.651,122.018 397.651,121.643 C397.651,120.753 394.37,118.55 394.12,118.55 C393.963,118.55 393.885,118.643 393.885,118.753 C393.885,118.831 393.917,118.909 394.01,118.987 C394.635,119.628 394.948,120.518 394.948,121.518 C394.948,122.69 394.635,124.018 393.729,125.034 C393.588,125.159 393.588,125.206 393.588,125.284 C393.588,125.503 396.479,127.987 396.479,127.987 C396.479,127.987 395.807,127.862 395.526,127.862 C394.37,127.862 393.323,128.44 393.323,129.612"/>
<path class="Rest" d="M331.211,70.8621 C331.211,71.8934 332.164,72.5652 333.289,72.5652 C333.992,72.5652 334.617,72.2527 335.226,71.8465 L333.586,77.409 C333.57,77.4715 333.57,77.534 333.57,77.534 C333.57,77.7059 333.711,77.8309 333.851,77.8309 C333.992,77.8309 334.117,77.7684 334.164,77.6121 L336.304,70.3465 C336.336,70.284 336.336,70.2215 336.336,70.2215 C336.336,70.0496 336.195,69.9246 336.054,69.9246 C335.914,69.9246 335.789,69.9871 335.726,70.1434 C335.367,71.0184 334.726,71.6277 333.867,71.8621 C334.117,71.6121 334.258,71.2527 334.258,70.8621 C334.258,70.0184 333.57,69.3465 332.726,69.3465 C331.898,69.3465 331.211,70.0184 331.211,70.8621"/>
<path class="Rest" d="M298.173,129.612 C298.173,130.893 299.033,132.081 300.408,133.003 C300.533,133.081 300.595,133.112 300.689,133.112 C300.798,133.112 300.892,133.034 300.892,132.925 C300.892,132.831 300.861,132.768 300.736,132.643 C300.158,132.065 299.877,131.393 299.877,130.722 C299.877,130.065 300.158,129.44 300.767,129.034 C301.048,128.847 301.33,128.753 301.689,128.753 C301.814,128.753 301.97,128.768 302.033,128.784 C302.095,128.8 302.252,128.847 302.361,128.847 C302.517,128.847 302.611,128.722 302.611,128.581 C302.611,128.487 302.595,128.409 302.127,128.003 C301.673,127.612 301.267,126.472 301.267,125.3 C301.267,124.768 301.58,124.003 301.908,123.347 C302.252,122.69 302.502,122.018 302.502,121.643 C302.502,120.753 299.22,118.55 298.97,118.55 C298.814,118.55 298.736,118.643 298.736,118.753 C298.736,118.831 298.767,118.909 298.861,118.987 C299.486,119.628 299.798,120.518 299.798,121.518 C299.798,122.69 299.486,124.018 298.58,125.034 C298.439,125.159 298.439,125.206 298.439,125.284 C298.439,125.503 301.33,127.987 301.33,127.987 C301.33,127.987 300.658,127.862 300.377,127.862 C299.22,127.862 298.173,128.44 298.173,129.612"/>
<path class="Rest" d="M45.6465,129.612 C45.6465,130.893 46.5058,132.081 47.8808,133.003 C48.0058,133.081 48.0683,133.112 48.1621,133.112 C48.2715,133.112 48.3652,133.034 48.3652,132.925 C48.3652,132.831 48.334,132.768 48.209,132.643 C47.6308,132.065 47.3496,131.393 47.3496,130.722 C47.3496,130.065 47.6308,129.44 48.2402,129.034 C48.5215,128.847 48.8027,128.753 49.1621,128.753 C49.2871,128.753 49.4433,128.768 49.5058,128.784 C49.5683,128.8 49.7246,128.847 49.834,128.847 C49.9902,128.847 50.084,128.722 50.084,128.581 C50.084,128.487 50.0683,128.409 49.5996,128.003 C49.1465,127.612 48.7402,126.472 48.7402,125.3 C48.7402,124.768 49.0527,124.003 49.3808,123.347 C49.7246,122.69 49.9746,122.018 49.9746,121.643 C49.9746,120.753 46.6933,118.55 46.4433,118.55 C46.2871,118.55 46.209,118.643 46.209,118.753 C46.209,118.831 46.2402,118.909 46.334,118.987 C46.959,119.628 47.2715,120.518 47.2715,121.518 C47.2715,122.69 46.959,124.018 46.0527,125.034 C45.9121,125.159 45.9121,125.206 45.9121,125.284 C45.9121,125.503 48.8027,127.987 48.8027,127.987 C48.8027,127.987 48.1308,127.862 47.8496,127.862 C46.6933,127.862 45.6465,128.44 45.6465,129.612"/>
<path class="Beam" fill-rule="evenodd" d="M538.657,135.847 L555.46,129.345 L555.46,131.845 L538.657,138.347 L538.657,135.847 "/>
<path class="Beam" fill-rule="evenodd" d="M514.429,135.847 L531.231,129.345 L531.231,131.845 L514.429,138.347 L514.429,135.847 "/>
<path class="Beam" fill-rule="evenodd" d="M486.91,135.847 L507.003,129.388 L507.003,131.888 L486.91,138.347 L486.91,135.847 "/>
<path class="Beam" fill-rule="evenodd" d="M486.91,77.0965 L500.684,75.7846 L500.684,78.2846 L486.91,79.5965 L486.91,77.0965 "/>
<path class="Beam" fill-rule="evenodd" d="M450.714,134.597 L469.441,129.417 L469.441,131.917 L450.714,137.097 L450.714,134.597 "/>
<path class="Beam" fill-rule="evenodd" d="M423.598,134.597 L442.325,129.417 L442.325,131.917 L423.598,137.097 L423.598,134.597 "/>
<path class="Beam" fill-rule="evenodd" d="M393.323,85.8465 L416.679,85.8465 L416.679,88.3465 L393.323,88.3465 L393.323,85.8465 "/>
<path class="Beam" fill-rule="evenodd" d="M393.323,82.0965 L416.679,82.0965 L416.679,84.5965 L393.323,84.5965 L393.323,82.0965 "/>
<path class="Beam" fill-rule="evenodd" d="M366.405,85.8465 L375.854,87.1888 L375.854,89.6888 L366.405,88.3465 L366.405,85.8465 "/>
<path class="Beam" fill-rule="evenodd" d="M348.808,82.0965 L358.257,83.4388 L358.257,85.9388 L348.808,84.5965 L348.808,82.0965 "/>
<path class="Beam" fill-rule="evenodd" d="M267.898,87.0965 L291.255,81.9534 L291.255,84.4534 L267.898,89.5965 L267.898,87.0965 "/>
<path class="Beam" fill-rule="evenodd" d="M267.898,83.3465 L291.255,78.2033 L291.255,80.7034 L267.898,85.8465 L267.898,83.3465 "/>
<path class="Beam" fill-rule="evenodd" d="M234.363,115.638 L246.73,119.597 L246.73,122.097 L234.363,118.138 L234.363,115.638 "/>
<path class="Beam" fill-rule="evenodd" d="M246.73,123.347 L240.13,121.234 L240.13,123.734 L246.73,125.847 L246.73,123.347 "/>
<path class="Beam" fill-rule="evenodd" d="M180.982,77.0965 L198.107,82.2938 L198.107,84.7938 L180.982,79.5965 L180.982,77.0965 "/>
<path class="Beam" fill-rule="evenodd" d="M189.888,76.0493 L198.107,78.5438 L198.107,81.0438 L189.888,78.5493 L189.888,76.0493 "/>
<path class="Beam" fill-rule="evenodd" d="M156.939,77.0965 L174.064,80.9944 L174.064,83.4944 L156.939,79.5965 L156.939,77.0965 "/>
<path class="Beam" fill-rule="evenodd" d="M165.845,75.3736 L174.064,77.2444 L174.064,79.7444 L165.845,77.8736 L165.845,75.3736 "/>
<path class="Beam" fill-rule="evenodd" d="M51.3152,62.2765 L65.5042,58.3465 L65.5042,60.8465 L51.3152,64.7765 L51.3152,62.2765 "/>
<path class="Beam" fill-rule="evenodd" d="M65.5042,62.0965 L58.9042,63.9245 L58.9042,66.4245 L65.5042,64.5965 L65.5042,62.0965 "/>
<path class="Hook" d="M340.009,85.5652 C340.009,85.5652 340.009,85.8465 340.306,85.8465 C340.603,85.8465 340.603,85.5652 340.603,85.5652 C341.087,84.2527 342.103,83.2215 343.431,81.9246 C344.744,80.6277 346.291,78.9715 346.291,76.0965 C346.291,74.3465 345.634,72.4246 344.275,70.8152 C344.056,70.5652 343.916,70.4402 343.791,70.4402 C343.666,70.4402 343.556,70.5496 343.556,70.6746 C343.556,70.8152 343.634,70.9402 343.994,71.4246 C344.353,71.909 345.509,73.659 345.509,75.6277 C345.509,78.659 343.728,81.0809 340.603,81.0809 L340.009,81.0809 L340.009,85.5652 "/>
<path class="Tuplet" d="M545.64,144.493 C547.223,144.233 548.015,143.681 548.015,142.837 C548.015,142.556 547.934,142.332 547.773,142.165 C547.611,141.999 547.395,141.915 547.124,141.915 C546.718,141.915 546.348,142.139 546.015,142.587 L545.859,142.54 C546.025,142.217 546.252,141.96 546.538,141.767 C546.825,141.574 547.145,141.478 547.499,141.478 C547.895,141.478 548.226,141.6 548.491,141.845 C548.757,142.09 548.89,142.4 548.89,142.775 C548.89,143.108 548.78,143.379 548.562,143.587 C548.343,143.795 547.932,144.019 547.327,144.259 L547.327,144.275 C547.973,144.577 548.296,145.077 548.296,145.775 C548.296,146.462 548.038,147.059 547.523,147.564 C547.007,148.069 546.333,148.322 545.499,148.322 C544.76,148.322 544.39,148.129 544.39,147.743 C544.39,147.483 544.536,147.353 544.827,147.353 C544.994,147.353 545.215,147.452 545.491,147.65 C545.767,147.848 545.999,147.947 546.187,147.947 C546.541,147.947 546.848,147.795 547.109,147.493 C547.369,147.191 547.499,146.795 547.499,146.306 C547.499,145.681 547.34,145.249 547.023,145.009 C546.705,144.769 546.244,144.65 545.64,144.65 L545.64,144.493 "/>
<path class="Tuplet" d="M521.411,144.493 C522.995,144.233 523.786,143.681 523.786,142.837 C523.786,142.556 523.706,142.332 523.544,142.165 C523.383,141.999 523.166,141.915 522.896,141.915 C522.489,141.915 522.12,142.139 521.786,142.587 L521.63,142.54 C521.797,142.217 522.023,141.96 522.31,141.767 C522.596,141.574 522.916,141.478 523.271,141.478 C523.666,141.478 523.997,141.6 524.263,141.845 C524.528,142.09 524.661,142.4 524.661,142.775 C524.661,143.108 524.552,143.379 524.333,143.587 C524.114,143.795 523.703,144.019 523.099,144.259 L523.099,144.275 C523.745,144.577 524.068,145.077 524.068,145.775 C524.068,146.462 523.81,147.059 523.294,147.564 C522.778,148.069 522.104,148.322 521.271,148.322 C520.531,148.322 520.161,148.129 520.161,147.743 C520.161,147.483 520.307,147.353 520.599,147.353 C520.765,147.353 520.987,147.452 521.263,147.65 C521.539,147.848 521.771,147.947 521.958,147.947 C522.312,147.947 522.62,147.795 522.88,147.493 C523.14,147.191 523.271,146.795 523.271,146.306 C523.271,145.681 523.112,145.249 522.794,145.009 C522.476,144.769 522.015,144.65 521.411,144.65 L521.411,144.493 "/>
<path class="Tuplet" d="M495.538,144.493 C497.121,144.233 497.913,143.681 497.913,142.837 C497.913,142.556 497.832,142.332 497.67,142.165 C497.509,141.999 497.293,141.915 497.022,141.915 C496.616,141.915 496.246,142.139 495.913,142.587 L495.756,142.54 C495.923,142.217 496.15,141.96 496.436,141.767 C496.723,141.574 497.043,141.478 497.397,141.478 C497.793,141.478 498.124,141.6 498.389,141.845 C498.655,142.09 498.788,142.4 498.788,142.775 C498.788,143.108 498.678,143.379 498.459,143.587 C498.241,143.795 497.829,144.019 497.225,144.259 L497.225,144.275 C497.871,144.577 498.194,145.077 498.194,145.775 C498.194,146.462 497.936,147.059 497.42,147.564 C496.905,148.069 496.23,148.322 495.397,148.322 C494.657,148.322 494.288,148.129 494.288,147.743 C494.288,147.483 494.433,147.353 494.725,147.353 C494.892,147.353 495.113,147.452 495.389,147.65 C495.665,147.848 495.897,147.947 496.084,147.947 C496.439,147.947 496.746,147.795 497.006,147.493 C497.267,147.191 497.397,146.795 497.397,146.306 C497.397,145.681 497.238,145.249 496.92,145.009 C496.603,144.769 496.142,144.65 495.538,144.65 L495.538,144.493 "/>
<path class="Tuplet" d="M458.659,143.243 C460.242,142.983 461.034,142.431 461.034,141.587 C461.034,141.306 460.953,141.082 460.792,140.915 C460.63,140.749 460.414,140.665 460.143,140.665 C459.737,140.665 459.367,140.889 459.034,141.337 L458.878,141.29 C459.044,140.967 459.271,140.71 459.557,140.517 C459.844,140.324 460.164,140.228 460.518,140.228 C460.914,140.228 461.245,140.35 461.51,140.595 C461.776,140.84 461.909,141.15 461.909,141.525 C461.909,141.858 461.799,142.129 461.581,142.337 C461.362,142.545 460.951,142.769 460.346,143.009 L460.346,143.025 C460.992,143.327 461.315,143.827 461.315,144.525 C461.315,145.212 461.057,145.809 460.542,146.314 C460.026,146.819 459.352,147.072 458.518,147.072 C457.779,147.072 457.409,146.879 457.409,146.493 C457.409,146.233 457.555,146.103 457.846,146.103 C458.013,146.103 458.234,146.202 458.51,146.4 C458.786,146.598 459.018,146.697 459.206,146.697 C459.56,146.697 459.867,146.545 460.128,146.243 C460.388,145.941 460.518,145.545 460.518,145.056 C460.518,144.431 460.359,143.999 460.042,143.759 C459.724,143.519 459.263,143.4 458.659,143.4 L458.659,143.243 "/>
<path class="Tuplet" d="M431.543,143.243 C433.126,142.983 433.918,142.431 433.918,141.587 C433.918,141.306 433.837,141.082 433.676,140.915 C433.514,140.749 433.298,140.665 433.027,140.665 C432.621,140.665 432.251,140.889 431.918,141.337 L431.762,141.29 C431.928,140.967 432.155,140.71 432.441,140.517 C432.728,140.324 433.048,140.228 433.402,140.228 C433.798,140.228 434.129,140.35 434.394,140.595 C434.66,140.84 434.793,141.15 434.793,141.525 C434.793,141.858 434.683,142.129 434.465,142.337 C434.246,142.545 433.834,142.769 433.23,143.009 L433.23,143.025 C433.876,143.327 434.199,143.827 434.199,144.525 C434.199,145.212 433.941,145.809 433.426,146.314 C432.91,146.819 432.236,147.072 431.402,147.072 C430.663,147.072 430.293,146.879 430.293,146.493 C430.293,146.233 430.439,146.103 430.73,146.103 C430.897,146.103 431.118,146.202 431.394,146.4 C431.67,146.598 431.902,146.697 432.09,146.697 C432.444,146.697 432.751,146.545 433.012,146.243 C433.272,145.941 433.402,145.545 433.402,145.056 C433.402,144.431 433.243,143.999 432.926,143.759 C432.608,143.519 432.147,143.4 431.543,143.4 L431.543,143.243 "/>
<path class="NoteDot" d="M236.763,133.347 C236.763,134.003 237.31,134.55 237.966,134.55 C238.622,134.55 239.169,134.003 239.169,133.347 C239.169,132.69 238.622,132.143 237.966,132.143 C237.31,132.143 236.763,132.69 236.763,133.347"/>
<path class="NoteDot" d="M223.644,65.8465 C223.644,66.5027 224.191,67.0496 224.847,67.0496 C225.503,67.0496 226.05,66.5027 226.05,65.8465 C226.05,65.1902 225.503,64.6433 224.847,64.6433 C224.191,64.6433 223.644,65.1902 223.644,65.8465"/>
<path class="NoteDot" d="M112.157,65.8465 C112.157,66.5027 112.704,67.0496 113.36,67.0496 C114.016,67.0496 114.563,66.5027 114.563,65.8465 C114.563,65.1902 114.016,64.6433 113.36,64.6433 C112.704,64.6433 112.157,65.1902 112.157,65.8465"/>
<path class="NoteDot" d="M53.7152,80.8465 C53.7152,81.5027 54.2621,82.0496 54.9183,82.0496 C55.5746,82.0496 56.1215,81.5027 56.1215,80.8465 C56.1215,80.1902 55.5746,79.6434 54.9183,79.6434 C54.2621,79.6434 53.7152,80.1902 53.7152,80.8465"/>
<path class="Page" d="M565.797,795.792 C565.797,795.511 565.734,795.261 565.609,795.042 C565.484,794.823 565.331,794.651 565.148,794.526 C564.966,794.401 564.766,794.303 564.547,794.23 C564.328,794.157 564.138,794.107 563.977,794.081 C563.815,794.055 563.672,794.042 563.547,794.042 C563.484,794.042 563.453,794.021 563.453,793.98 C563.453,793.959 563.453,793.943 563.453,793.933 L564.328,792.073 L566,792.073 C566.083,792.073 566.151,792.06 566.203,792.034 C566.255,792.008 566.313,791.954 566.375,791.87 L566.438,791.933 L566.141,792.589 C566.12,792.641 566.057,792.667 565.953,792.667 L564.391,792.667 L564.047,793.339 C564.828,793.485 565.409,793.714 565.789,794.026 C566.169,794.339 566.359,794.803 566.359,795.417 C566.359,795.73 566.31,796.011 566.211,796.261 C566.112,796.511 565.984,796.711 565.828,796.862 C565.672,797.013 565.495,797.136 565.297,797.23 C565.099,797.323 564.909,797.388 564.727,797.425 C564.544,797.461 564.359,797.48 564.172,797.48 C563.87,797.48 563.63,797.435 563.453,797.347 C563.276,797.258 563.188,797.136 563.188,796.98 C563.188,796.792 563.302,796.698 563.531,796.698 C563.688,796.698 563.883,796.779 564.117,796.941 C564.352,797.102 564.542,797.183 564.688,797.183 C565,797.183 565.263,797.05 565.477,796.784 C565.69,796.519 565.797,796.188 565.797,795.792"/>
<path class="Bracket" fill-rule="evenodd" d="M36.755,89.1402 C36.755,83.2993 32.7322,77.6218 32.7322,72.0261 C32.7322,69.2077 33.8293,66.4711 37.2122,64.0204 C37.2579,63.9898 37.2807,63.9387 37.2807,63.9081 C37.2807,63.8162 37.0293,63.7345 36.8465,63.7345 C36.755,63.7345 36.595,63.7447 36.4807,63.8162 C32.0922,66.9613 30.6293,70.5965 30.6293,74.2725 C30.6293,80.1951 34.9265,85.9134 34.9265,91.5909 C34.9265,94.4092 33.8293,97.0641 30.4465,99.5148 L30.4465,99.5965 L30.4465,99.6782 C33.8293,102.129 34.9265,104.784 34.9265,107.602 C34.9265,113.28 30.6293,118.998 30.6293,124.92 C30.6293,128.597 32.0922,132.232 36.4807,135.377 C36.595,135.448 36.755,135.458 36.8465,135.458 C37.0293,135.458 37.2807,135.377 37.2807,135.285 C37.2807,135.254 37.2579,135.203 37.2122,135.173 C33.8293,132.722 32.7322,129.985 32.7322,127.167 C32.7322,121.571 36.755,115.894 36.755,110.053 C36.755,106.336 35.2922,102.782 30.995,99.5965 C35.2922,96.4106 36.755,92.8571 36.755,89.1402"/>
</svg>
